# xmcd
#
# Track frame offsets:
#	150
#	18950
#	35782
#	56235
#	73500
#	96322
#	113237
#	131837
#
# Disc length: 2006 seconds
#
# Revision: 1
# Processed by: cddbd v1.5.1PL0 Copyright (c) Steve Scherf et al.
# Submitted via: CDex 1.50Beta5
#
DISCID=7407d408
DTITLE=Like Uncolored Velvet - LUV #001
DYEAR=1999
DGENRE=Rock
TTITLE0=空へ
TTITLE1=人生は甘くない
TTITLE2=明日にとどけ
TTITLE3=YOU…
TTITLE4=ラビリンス
TTITLE5=Just Run Away
TTITLE6=DON’T CRY ALONE
TTITLE7=スピードが違いすぎて
EXTD=
EXTT0=
EXTT1=
EXTT2=
EXTT3=
EXTT4=
EXTT5=
EXTT6=
EXTT7=
PLAYORDER=
